<svg version="1.1" id="Layer_1" xmlns="http://www.w3.org/2000/svg" xmlns:xlink="http://www.w3.org/1999/xlink" x="0px" y="0px"
	 width="100%" viewBox="0 0 1024 1024" enable-background="new 0 0 1024 1024" xml:space="preserve">
<path fill="#000000" opacity="1.000000" stroke="none" 
	d="
M546.348267,186.421051 
	C612.770691,199.669312 664.742798,251.090240 676.764099,318.475281 
	C685.774963,368.985687 677.069153,416.720459 644.360107,457.959686 
	C615.912598,493.826111 578.976196,515.433899 533.276672,521.514282 
	C528.956360,522.089050 524.675781,522.355591 520.350403,522.356506 
	C470.034119,522.366882 419.717804,522.372925 369.401520,522.371521 
	C361.352753,522.371277 360.881805,521.994507 360.877777,513.915710 
	C360.824005,405.786163 360.799255,297.656586 360.785614,189.527039 
	C360.784851,183.548416 361.709076,182.700241 367.838531,182.701492 
	C417.488037,182.711563 467.137726,182.667526 516.786865,182.805634 
	C526.598938,182.832932 536.308411,184.395203 546.348267,186.421051 
M457.500061,234.343216 
	C445.174774,234.345459 432.846832,234.494720 420.525513,234.275299 
	C415.806946,234.191269 414.131165,235.756500 414.140198,240.607346 
	C414.279755,315.391541 414.304840,390.176056 414.190613,464.960236 
	C414.183472,469.646606 415.720978,470.944763 420.199097,470.918243 
	C451.340729,470.733978 482.493378,471.224121 513.623291,470.575806 
	C544.849792,469.925446 572.645569,459.230011 594.137756,436.279419 
	C624.822510,403.512421 634.652954,364.559875 623.962219,320.830688 
	C611.552002,270.068237 565.723938,234.346024 513.466248,234.334824 
	C495.144196,234.330902 476.822144,234.340744 457.500061,234.343216 
z"/>
<path fill="#000000" opacity="1.000000" stroke="none" 
	d="
M521.903076,620.413086 
	C520.400085,624.222473 518.750427,627.495972 516.115784,630.134888 
	C513.536499,632.718262 510.850342,635.194824 508.162079,637.765076 
	C508.600769,639.218140 510.043030,639.491577 511.189301,640.002319 
	C533.248779,649.830933 532.770386,678.922607 520.210938,692.739868 
	C512.274170,701.471497 502.065277,705.023376 490.735687,705.223572 
	C471.583160,705.561890 452.420898,705.365540 433.262726,705.356873 
	C427.403870,705.354248 426.832703,704.793640 426.832489,698.617126 
	C426.831390,667.298035 426.869171,635.979004 426.919830,604.659912 
	C426.932465,596.830811 427.079712,589.001831 427.093262,581.172729 
	C427.099915,577.314209 428.556702,575.538879 432.767883,575.583679 
	C450.091614,575.767883 467.421753,575.470032 484.742645,575.759766 
	C494.392090,575.921143 503.658569,578.404541 511.302429,584.553650 
	C522.820801,593.819641 525.511597,606.070801 521.903076,620.413086 
M471.505951,651.912842 
	C467.343384,651.905823 463.168152,652.096130 459.022217,651.829895 
	C455.648865,651.613281 454.160919,652.515442 454.301788,656.189453 
	C454.544067,662.507446 454.500336,668.845276 454.317993,675.167236 
	C454.219055,678.598267 455.406372,679.911560 458.924652,679.840271 
	C468.078766,679.654602 477.240967,679.877136 486.395813,679.711243 
	C494.937439,679.556580 500.450439,674.134216 500.578461,666.131470 
	C500.697449,658.695740 495.140045,652.915894 486.975983,652.318909 
	C482.167084,651.967285 477.327820,652.031189 471.505951,651.912842 
M485.070190,601.343262 
	C476.489349,599.527527 467.809967,600.624512 459.174957,600.526184 
	C455.643158,600.486023 454.282745,602.617981 454.403046,606.088196 
	C454.610413,612.070068 454.775970,618.063843 454.619720,624.043701 
	C454.538605,627.148315 456.003662,627.695068 458.552704,627.674561 
	C466.382172,627.611572 474.215607,627.773438 482.041290,627.587158 
	C488.904144,627.423767 494.687653,622.502502 495.590118,616.471558 
	C496.755402,608.684204 493.912170,604.285217 485.070190,601.343262 
z"/>
<path fill="#000000" opacity="1.000000" stroke="none" 
	d="
M693.273926,675.040833 
	C693.267761,683.695740 693.192322,691.857788 693.286499,700.017944 
	C693.329895,703.778503 691.852783,705.517151 687.951721,705.401672 
	C682.460205,705.238953 676.960022,705.388000 671.463745,705.361206 
	C665.464966,705.331970 664.915649,704.836548 664.909424,698.776611 
	C664.888306,678.123596 664.939819,657.470581 664.937378,636.817566 
	C664.935303,618.829529 664.886292,600.841492 664.881958,582.853455 
	C664.880310,576.039246 665.237915,575.675842 671.832397,575.675293 
	C686.989075,575.674072 702.161804,575.270325 717.297913,575.835815 
	C732.516663,576.404419 746.399902,580.654419 756.631287,593.186157 
	C769.603638,609.075134 769.889954,644.609497 742.866821,656.908203 
	C741.828369,657.380859 740.875793,658.042419 740.012573,658.541199 
	C739.556091,660.500305 740.796997,661.552185 741.588074,662.764343 
	C749.322327,674.615784 757.105042,686.435852 764.775452,698.328369 
	C765.878540,700.038757 768.038818,701.783752 766.697083,704.105469 
	C765.503601,706.170837 763.079651,705.314636 761.174988,705.342224 
	C755.180237,705.428894 749.165466,705.079224 743.192932,705.451782 
	C738.458130,705.747131 735.517822,704.099060 733.037964,700.047241 
	C726.782532,689.826416 719.965454,679.949524 713.704163,669.732117 
	C711.258362,665.741089 708.475403,663.986572 703.665161,664.180115 
	C691.695862,664.661682 693.440735,662.710327 693.273926,675.040833 
M734.209778,610.462341 
	C730.295410,605.640747 725.215637,603.308105 719.022888,603.304504 
	C712.214478,603.300537 705.399353,603.441162 698.600159,603.179871 
	C694.367615,603.017212 693.101746,604.778564 693.214722,608.777222 
	C693.425659,616.244080 693.419189,623.725098 693.215088,631.192383 
	C693.104797,635.227173 694.480225,636.905212 698.669495,636.747986 
	C705.302795,636.499084 711.952637,636.729004 718.594482,636.660828 
	C732.987183,636.513062 740.717957,624.129395 734.209778,610.462341 
z"/>
<path fill="#000000" opacity="1.000000" stroke="none" 
	d="
M386.503571,691.532715 
	C349.962860,723.824524 288.590088,707.059814 279.073914,654.187622 
	C274.026031,626.141479 283.871368,597.035461 310.064178,582.553040 
	C352.366608,559.163391 401.949585,583.233582 407.379974,631.985718 
	C409.944885,655.012573 403.989349,675.119690 386.503571,691.532715 
M353.404785,602.079407 
	C347.049652,600.090088 340.722931,600.027405 334.283600,601.894836 
	C307.816071,609.570557 297.265717,645.398865 315.245819,667.339172 
	C323.685883,677.638184 334.645142,683.054443 348.187927,681.096619 
	C364.573914,678.727783 377.882965,665.430298 380.065033,646.916992 
	C382.371490,627.348450 372.460144,609.236816 353.404785,602.079407 
z"/>
<path fill="#000000" opacity="1.000000" stroke="none" 
	d="
M247.406113,597.652100 
	C267.737274,623.727539 267.865601,659.127563 247.568008,683.773865 
	C235.991333,697.830933 220.370636,704.447632 202.508606,705.175110 
	C187.045563,705.804810 171.536697,705.239868 156.050583,705.419128 
	C151.854919,705.467651 150.596375,703.821838 150.606140,699.802124 
	C150.702072,660.332703 150.696274,620.862915 150.615082,581.393433 
	C150.607132,577.522278 151.574539,575.490845 155.928085,575.640808 
	C172.387772,576.207764 188.879105,574.822815 205.328644,576.607910 
	C221.864456,578.402405 236.059204,584.747986 247.406113,597.652100 
M233.813477,643.354126 
	C233.799225,640.858704 233.869614,638.359497 233.756851,635.868530 
	C233.067596,620.642639 223.345825,608.723145 208.603806,604.892212 
	C199.594559,602.551025 190.415649,603.579346 181.296570,603.429871 
	C178.428085,603.382812 178.307648,605.435730 178.309036,607.570984 
	C178.323563,629.871094 178.368134,652.171326 178.277771,674.471069 
	C178.264191,677.823792 179.658524,678.818481 182.773422,678.724121 
	C187.927917,678.567932 193.090469,678.702271 198.249008,678.651550 
	C219.291260,678.444641 232.810287,665.361206 233.813477,643.354126 
z"/>
<path fill="#000000" opacity="1.000000" stroke="none" 
	d="
M594.007935,653.384521 
	C590.344788,653.387146 587.163818,653.591858 584.018982,653.341553 
	C579.802429,653.005859 577.843689,654.389771 578.115479,658.925110 
	C578.413879,663.904541 578.367371,668.924011 578.130493,673.909851 
	C577.951599,677.675415 579.460266,678.804016 583.087708,678.774780 
	C600.077148,678.637634 617.068298,678.697021 634.058838,678.702759 
	C641.143616,678.705139 641.324097,678.894592 641.347778,686.034668 
	C641.363770,690.865234 641.252319,695.698303 641.372803,700.525818 
	C641.456116,703.863281 640.167053,705.393127 636.702881,705.386536 
	C609.218384,705.333923 581.733521,705.319458 554.249146,705.405457 
	C549.735535,705.419617 549.695129,702.613220 549.698059,699.419617 
	C549.714661,681.263123 549.698975,663.106567 549.696533,644.950073 
	C549.693726,623.961731 549.793823,602.972595 549.613892,581.985779 
	C549.573853,577.314636 550.944824,575.541443 555.856018,575.577393 
	C582.006714,575.768921 608.160034,575.739258 634.311218,575.584290 
	C638.810791,575.557678 640.696228,576.915649 640.405884,581.594299 
	C640.086731,586.738281 640.068542,591.934631 640.406982,597.076050 
	C640.720825,601.844910 638.597778,603.136414 634.243652,603.102661 
	C617.920654,602.976196 601.595947,603.055115 585.271912,603.062683 
	C578.258179,603.065918 578.253418,603.072205 578.223633,610.306091 
	C578.207825,614.137207 578.377136,617.977905 578.160095,621.796997 
	C577.951477,625.466736 579.332886,626.758850 583.053772,626.720032 
	C598.043762,626.563477 613.038513,626.800537 628.026794,626.577332 
	C632.751404,626.507019 634.735413,627.960693 634.393860,632.849548 
	C634.069519,637.490601 634.054321,642.194214 634.412903,646.830933 
	C634.796265,651.789001 633.137085,653.638977 627.984985,653.487366 
	C616.834045,653.159241 605.666809,653.384827 594.007935,653.384521 
z"/>
<path fill="#000000" opacity="1.000000" stroke="none" 
	d="
M842.309570,694.959717 
	C842.340271,706.291931 842.906982,705.350586 832.229309,705.372742 
	C828.230835,705.381042 824.213867,705.132202 820.238770,705.436951 
	C815.757874,705.780457 814.558044,703.922180 814.579224,699.642639 
	C814.723022,670.654419 814.651611,641.665039 814.646729,612.676086 
	C814.645081,603.032837 814.641052,603.027344 804.765259,603.019287 
	C797.768005,603.013611 790.769226,602.940063 783.774109,603.063721 
	C779.992126,603.130493 778.083557,601.359497 778.124084,597.737183 
	C778.194763,591.415405 778.437805,585.093750 778.722534,578.777161 
	C778.859497,575.736694 781.195190,575.673157 783.452026,575.670776 
	C790.116150,575.663757 796.780273,575.655151 803.444397,575.655334 
	C825.935852,575.655884 848.427246,575.646729 870.918701,575.670654 
	C877.610657,575.677795 878.267517,576.378906 878.302673,583.208435 
	C878.326721,587.873169 878.224609,592.540039 878.328918,597.202515 
	C878.424377,601.470886 876.399841,603.197815 872.229614,603.134338 
	C864.234924,603.012634 856.232605,603.234680 848.243042,602.993958 
	C843.781494,602.859558 842.186035,604.300049 842.218811,609.000366 
	C842.417664,637.488098 842.312134,665.978027 842.309570,694.959717 
z"/>
<path fill="#000000" opacity="1.000000" stroke="none" 
	d="
M702.246582,793.085266 
	C702.243042,800.066284 702.091492,806.567200 702.278687,813.058350 
	C702.442444,818.737305 698.706360,818.320679 694.891907,818.428650 
	C691.057434,818.537170 688.554626,817.996643 688.615417,813.138672 
	C688.817566,796.982727 688.633057,780.822144 688.749573,764.664490 
	C688.766846,762.262817 687.356018,758.524963 691.094421,757.981445 
	C694.956604,757.419922 699.345642,756.143066 702.477600,760.535095 
	C708.180298,768.532227 714.111633,776.366577 719.967773,784.253845 
	C721.945740,786.917725 723.984863,789.536194 726.907654,793.371704 
	C726.907654,783.214966 726.899658,774.340942 726.910217,765.466858 
	C726.918701,758.333130 731.720459,755.143677 738.491028,757.665955 
	C740.129028,758.276062 740.258789,759.505005 740.259766,760.851257 
	C740.272522,778.675293 740.272827,796.499329 740.250183,814.323364 
	C740.247925,816.069458 739.833496,818.065369 737.802673,818.083130 
	C734.022949,818.116089 729.751526,820.090393 726.730286,815.971497 
	C719.737854,806.438721 712.744446,796.906677 705.745361,787.378845 
	C704.867615,786.183899 703.953308,785.015991 702.245789,782.769836 
	C702.245789,786.815979 702.245789,789.708496 702.246582,793.085266 
z"/>
<path fill="#000000" opacity="1.000000" stroke="none" 
	d="
M653.699402,812.813232 
	C642.545593,820.897217 630.812683,822.110901 619.128235,815.816406 
	C606.960205,809.261414 602.592285,797.939209 603.773010,784.612427 
	C604.895874,771.938660 611.294617,762.423523 623.517273,758.198120 
	C642.834229,751.520264 661.662842,763.082214 664.463928,782.067444 
	C666.263916,794.267334 663.289551,804.408630 653.699402,812.813232 
M633.040344,769.906128 
	C623.848999,771.797363 619.856323,776.222229 618.001831,786.572449 
	C616.605957,794.363220 621.047607,802.413574 628.187378,805.033508 
	C635.790894,807.823669 644.476318,804.780823 648.565063,797.802368 
	C655.483643,785.994263 647.959839,769.709167 633.040344,769.906128 
z"/>
<path fill="#000000" opacity="1.000000" stroke="none" 
	d="
M326.808167,761.014893 
	C339.825592,769.741333 342.118225,782.509827 339.875671,796.101562 
	C337.926086,807.918030 330.040070,815.764038 318.299561,818.515747 
	C305.930145,821.414917 294.614441,818.947144 286.425812,808.437866 
	C277.642365,797.165161 277.457123,784.714783 283.396576,772.216370 
	C288.458282,761.565002 300.067841,755.741699 312.324005,756.520752 
	C317.455841,756.846924 322.105743,758.283630 326.808167,761.014893 
M317.030151,771.386230 
	C314.407959,770.369263 311.855194,769.388123 308.872162,769.911560 
	C299.051270,771.634827 293.750305,778.896851 294.210114,790.271912 
	C294.525665,798.077942 299.232147,804.166626 306.038361,805.574036 
	C314.235779,807.268982 321.709137,803.720703 325.163147,796.493530 
	C329.459839,787.503113 326.584320,777.982666 317.030151,771.386230 
z"/>
<path fill="#000000" opacity="1.000000" stroke="none" 
	d="
M431.694397,814.426147 
	C425.121460,809.033081 422.905975,801.999573 422.754395,794.262146 
	C422.548828,783.769836 422.825470,773.268311 422.638947,762.775330 
	C422.568939,758.838867 424.025116,757.234985 427.898102,757.628113 
	C431.397400,757.983337 436.077972,756.086243 436.062500,762.500854 
	C436.037170,772.996094 436.072144,783.493469 436.265778,793.986572 
	C436.409058,801.749268 440.290314,805.726929 447.383148,805.817566 
	C454.872681,805.913208 459.480804,801.531555 459.602112,793.749817 
	C459.763184,783.422607 459.866180,773.084839 459.566650,762.764099 
	C459.421021,757.744812 462.124451,757.473633 465.830292,757.619263 
	C469.440765,757.761169 473.379120,756.752136 473.229126,762.735229 
	C472.974518,772.891968 473.289337,783.062073 473.100861,793.221680 
	C472.917389,803.112915 469.791595,811.796265 460.376831,816.467102 
	C450.753754,821.241272 441.094666,820.844116 431.694397,814.426147 
z"/>
<path fill="#000000" opacity="1.000000" stroke="none" 
	d="
M781.935364,819.353271 
	C775.004272,818.500183 769.578491,815.479614 764.769592,811.138733 
	C762.360779,808.964355 762.257690,807.045471 764.974487,805.073975 
	C766.318970,804.098389 767.647400,803.062378 768.810730,801.883606 
	C770.911438,799.754944 772.726135,799.999329 774.719482,802.065918 
	C778.466370,805.950317 783.186157,807.085449 788.425049,806.644531 
	C791.821167,806.358765 794.807556,805.279846 795.543213,801.600647 
	C796.307129,797.780212 793.368164,796.411621 790.478638,795.274231 
	C786.458252,793.691528 782.342957,792.327209 778.402771,790.568054 
	C768.739075,786.253418 764.180725,778.864319 765.993530,770.833862 
	C767.978699,762.039795 776.550903,756.043640 786.697632,756.241089 
	C793.787720,756.379089 800.110474,758.326660 805.261169,763.449768 
	C807.206116,765.384399 808.070557,767.410583 805.572876,769.318909 
	C803.151428,771.169067 801.877502,776.423828 797.338623,772.932434 
	C793.997131,770.362183 790.538513,768.961975 786.300964,769.245667 
	C782.926086,769.471558 780.350769,770.883118 779.594177,774.152588 
	C778.807007,777.554016 781.721436,778.689392 784.164856,779.743164 
	C789.646790,782.107361 795.698364,782.964417 800.868469,786.200745 
	C809.701050,791.729492 812.373962,802.505859 806.653625,810.869873 
	C802.911316,816.341736 797.045166,818.358398 790.830017,819.267517 
	C788.060181,819.672607 785.184692,819.355591 781.935364,819.353271 
z"/>
<path fill="#000000" opacity="1.000000" stroke="none" 
	d="
M213.306091,806.300537 
	C216.242981,804.130920 218.347595,801.429749 221.775375,799.961731 
	C226.169418,804.123108 230.967865,807.554749 237.615601,806.664185 
	C241.132324,806.193054 244.551880,805.374634 245.153152,801.424988 
	C245.718399,797.711914 242.432892,796.474792 239.655746,795.293823 
	C235.064117,793.341248 230.287827,791.766174 225.854095,789.511414 
	C217.953598,785.493530 214.881653,779.779175 215.702957,771.766418 
	C216.420654,764.764404 221.552490,759.032898 229.556046,757.189392 
	C239.031860,755.006836 247.695023,756.636780 254.905655,763.781128 
	C257.007141,765.863403 257.426300,767.750061 255.023392,769.563660 
	C252.687866,771.326355 251.374344,776.248108 247.123184,773.027100 
	C243.469101,770.258423 239.674805,768.690063 235.095627,769.363892 
	C232.269592,769.779663 229.875168,770.978088 229.296478,774.016785 
	C228.666595,777.324341 230.904648,778.816772 233.614594,779.788147 
	C237.685822,781.247498 241.851929,782.483032 245.819061,784.183716 
	C255.263000,788.232239 259.592163,794.374084 258.863373,802.202698 
	C258.067108,810.756287 252.648895,816.761292 242.735428,818.818176 
	C232.243896,820.995117 222.497925,819.042480 214.470016,811.381104 
	C213.185760,810.155579 210.788467,808.941284 213.306091,806.300537 
z"/>
<path fill="#000000" opacity="1.000000" stroke="none" 
	d="
M526.296875,792.000061 
	C526.292542,799.159912 526.076172,805.828552 526.350647,812.476929 
	C526.564636,817.661255 523.899536,818.501160 519.537354,818.466248 
	C515.327332,818.432495 512.527771,817.987244 512.648682,812.633057 
	C512.915344,800.817932 512.724426,788.992249 512.705933,777.170898 
	C512.695374,770.422119 512.682678,770.421875 505.686584,770.404358 
	C504.521088,770.401428 503.342712,770.288147 502.192383,770.419556 
	C497.421783,770.964722 495.591156,768.878662 495.735840,764.123413 
	C495.921417,758.024841 496.041656,757.664185 502.216278,757.653687 
	C514.037659,757.633606 525.865112,757.862610 537.677551,757.536804 
	C542.717346,757.397766 543.444275,759.746582 543.405029,763.886658 
	C543.367371,767.869995 542.965210,770.498108 537.836975,770.494324 
	C526.301453,770.485779 526.301025,770.711487 526.296509,782.509155 
	C526.295349,785.506165 526.296326,788.503113 526.296875,792.000061 
z"/>
<path fill="#000000" opacity="1.000000" stroke="none" 
	d="
M364.631531,789.000122 
	C364.613861,779.847900 364.819672,771.187561 364.503235,762.546387 
	C364.312195,757.329407 367.447083,757.593262 370.931091,757.625122 
	C374.320038,757.656067 377.545898,757.103760 377.428497,762.439819 
	C377.154114,774.913025 377.468781,787.398315 377.281006,799.874756 
	C377.221466,803.829834 378.608856,805.199463 382.499878,805.027405 
	C387.980042,804.785156 393.481445,805.070923 398.969055,804.936951 
	C404.245575,804.808105 404.145508,808.303040 404.199036,812.005188 
	C404.252960,815.735901 403.820770,818.518982 398.935181,818.416626 
	C388.956177,818.207397 378.969086,818.292297 368.986694,818.392517 
	C365.785095,818.424622 364.549530,817.155640 364.597260,813.958801 
	C364.718964,805.807556 364.636017,797.653198 364.631531,789.000122 
z"/>
<path fill="#000000" opacity="1.000000" stroke="none" 
	d="
M579.354980,785.000122 
	C579.358582,794.821777 579.180237,804.148376 579.437439,813.463074 
	C579.580933,818.660645 576.396301,818.369385 572.903687,818.406128 
	C569.315613,818.443848 566.489929,818.466370 566.564331,813.353394 
	C566.811340,796.378174 566.813965,779.395081 566.572144,762.419800 
	C566.495911,757.067444 569.695435,757.652710 573.078064,757.621277 
	C576.553040,757.588989 579.722351,757.282043 579.473389,762.531677 
	C579.126892,769.839905 579.366394,777.175903 579.354980,785.000122 
z"/>
<path fill="#000000" opacity="1.000000" stroke="none" 
	d="
M581.920532,402.456055 
	C576.688782,408.315033 571.529968,413.750732 566.565369,419.358368 
	C563.639221,422.663635 560.925171,422.979584 557.746155,419.790894 
	C552.586548,414.615692 547.911377,412.228943 539.712830,416.113342 
	C532.447571,419.555542 529.850708,423.575165 529.317749,430.774292 
	C528.717834,438.876587 527.919678,439.336334 519.818237,439.342010 
	C514.487061,439.345734 509.155914,439.333984 503.824738,439.330292 
	C500.220612,439.327820 497.594849,438.186951 497.514069,433.995575 
	C497.504730,433.511353 497.118286,433.016907 497.162781,432.551697 
	C498.228119,421.410980 491.315430,416.860687 482.136932,413.840820 
	C479.976562,413.130005 478.493164,412.927399 476.706238,414.354584 
	C473.975983,416.535217 471.038757,418.457611 468.320435,420.651978 
	C465.800293,422.686310 463.584534,422.737091 461.337982,420.308258 
	C456.361969,414.928589 451.355316,409.577209 446.352661,404.222260 
	C444.080994,401.790588 444.271027,399.214233 446.576508,397.182159 
	C453.779175,390.833771 454.064880,383.974426 449.673859,375.724091 
	C447.743225,372.096497 445.857513,369.786774 441.822144,369.500488 
	C439.829773,369.359161 437.823883,369.401306 435.833221,369.244415 
	C430.432922,368.818817 428.811493,367.189301 428.703674,361.699799 
	C428.585938,355.704651 428.640472,349.704926 428.698517,343.707916 
	C428.740570,339.365173 430.095306,336.810852 435.334442,336.469879 
	C446.295685,335.756439 450.808533,331.219910 453.062256,320.426788 
	C453.512604,318.270050 452.252594,316.903259 451.176605,315.512085 
	C441.352264,302.810181 443.135651,305.572968 452.712585,294.497070 
	C455.215271,291.602692 458.003906,288.957245 460.617828,286.157013 
	C463.080902,283.518402 466.025208,282.721405 468.262329,285.790649 
	C475.545410,295.782837 483.705963,293.004089 492.325623,288.108704 
	C494.225769,287.029510 495.489258,285.941895 495.800537,283.689178 
	C496.299713,280.077209 497.187073,276.515594 497.611908,272.897614 
	C498.050903,269.159241 499.900177,267.007050 503.658051,266.935883 
	C510.151459,266.812836 516.648804,266.846985 523.144043,266.890442 
	C526.996826,266.916229 528.847046,269.141846 529.194397,272.807922 
	C529.304260,273.967804 529.303162,275.137817 529.394470,276.299927 
	C529.898193,282.713409 531.895081,286.773163 538.905823,289.963257 
	C546.382446,293.365387 550.746033,292.351746 556.311890,287.561981 
	C562.384644,282.336060 562.701965,282.652374 568.406128,288.648010 
	C572.194763,292.630157 575.805298,296.785583 579.674927,300.685455 
	C582.364746,303.396362 583.217773,306.334076 580.158386,308.839294 
	C571.164795,316.203796 574.425476,324.018890 578.701904,332.100555 
	C579.562256,333.726379 580.582520,334.761688 582.377197,335.052277 
	C583.358765,335.211212 584.326050,335.461121 585.309082,335.607697 
	C599.815735,337.771393 597.731079,334.121613 599.014648,350.826447 
	C599.267578,354.118073 598.931274,357.486664 598.570374,360.787354 
	C597.750671,368.284485 597.644775,368.328003 590.295044,369.195923 
	C588.809998,369.371307 587.299805,369.322723 585.804565,369.426147 
	C582.053040,369.685669 579.096497,370.869751 578.260742,375.149231 
	C577.916870,376.909912 577.255737,378.822357 576.146118,380.182037 
	C571.782288,385.529694 573.890320,389.691803 577.871216,394.046661 
	C579.888245,396.253174 582.774963,398.341522 581.920532,402.456055 
M547.275391,365.666443 
	C548.952026,359.214386 549.927795,352.824707 548.718994,346.040680 
	C545.381042,327.307526 526.258057,313.279236 508.099945,316.632812 
	C487.179047,320.496582 473.423340,340.098480 477.794373,359.818207 
	C481.467041,376.387329 494.120148,388.122437 509.902435,389.596771 
	C525.826965,391.084412 540.103699,382.143951 547.275391,365.666443 
z"/>
</svg>